<svg height="512" viewBox="0 0 64 64" width="512" xmlns="http://www.w3.org/2000/svg"><circle cx="51" cy="51" r="1"/><path d="m41 60h3a1 1 0 0 0 1-1v-5h-4z"/><path d="m36.27 34.14-3.56 3.57a1.008 1.008 0 0 1 -1.42 0l-3.56-3.57-1.13.38 3.91 5.48h2.98l3.91-5.48z"/><path d="m39.45 35.09-4.4 6.15 1.94 11.6a1.011 1.011 0 0 1 -.28.87l-4 4a1.014 1.014 0 0 1 -1.42 0l-4-4a1.011 1.011 0 0 1 -.28-.87l1.94-11.6-4.4-6.15a7.015 7.015 0 0 0 -5.55 6.91v10h5a1 1 0 0 1 1 1v7h14v-7a1 1 0 0 1 1-1h5v-10a7.015 7.015 0 0 0 -5.55-6.91z"/><path d="m56.79 48.99a4.26 4.26 0 0 0 -.28-.7.982.982 0 0 1 .11-1.04l1.47-1.89-1.45-1.45-1.89 1.47a.982.982 0 0 1 -1.04.11 4.26 4.26 0 0 0 -.7-.28 1.019 1.019 0 0 1 -.69-.84l-.3-2.37h-2.04l-.3 2.37a1.019 1.019 0 0 1 -.69.84 4.26 4.26 0 0 0 -.7.28.982.982 0 0 1 -1.04-.11l-.25-.19v11.62l.25-.19a1 1 0 0 1 1.04-.11 4.26 4.26 0 0 0 .7.28 1.019 1.019 0 0 1 .69.84l.3 2.37h2.04l.3-2.37a1.019 1.019 0 0 1 .69-.84 4.26 4.26 0 0 0 .7-.28 1 1 0 0 1 1.04.11l1.89 1.47 1.45-1.45-1.47-1.89a.982.982 0 0 1 -.11-1.04 4.26 4.26 0 0 0 .28-.7 1.019 1.019 0 0 1 .84-.69l2.37-.3v-2.04l-2.37-.3a1.019 1.019 0 0 1 -.84-.69zm-5.79 5.01a3 3 0 1 1 3-3 3 3 0 0 1 -3 3z"/><path d="m19 59a1 1 0 0 0 1 1h3v-6h-4z"/><path d="m15.71 45.49a4.26 4.26 0 0 0 -.7-.28 1.019 1.019 0 0 1 -.69-.84l-.3-2.37h-2.04l-.3 2.37a1.019 1.019 0 0 1 -.69.84 4.26 4.26 0 0 0 -.7.28.982.982 0 0 1 -1.04-.11l-1.89-1.47-1.45 1.45 1.47 1.89a.982.982 0 0 1 .11 1.04 4.26 4.26 0 0 0 -.28.7 1.019 1.019 0 0 1 -.84.69l-2.37.3v2.04l2.37.3a1.019 1.019 0 0 1 .84.69 4.26 4.26 0 0 0 .28.7.982.982 0 0 1 -.11 1.04l-1.47 1.89 1.45 1.45 1.89-1.47a1 1 0 0 1 1.04-.11 4.26 4.26 0 0 0 .7.28 1.019 1.019 0 0 1 .69.84l.3 2.37h2.04l.3-2.37a1.019 1.019 0 0 1 .69-.84 4.26 4.26 0 0 0 .7-.28 1 1 0 0 1 1.04.11l.25.19v-11.62l-.25.19a.98.98 0 0 1 -1.04.11zm-2.71 8.51a3 3 0 1 1 3-3 3 3 0 0 1 -3 3z"/><path d="m30.85 42-.34 2h2.98l-.34-2z"/><circle cx="13" cy="51" r="1"/><path d="m29.07 52.66 2.93 2.93 2.93-2.93-1.11-6.66h-3.64z"/><path d="m5 18h12a1 1 0 0 0 1-1v-12a1 1 0 0 0 -1-1h-3v7a1 1 0 0 1 -1.707.707l-1.293-1.293-1.293 1.293a1 1 0 0 1 -1.707-.707v-7h-3a1 1 0 0 0 -1 1v12a1 1 0 0 0 1 1z"/><path d="m11.707 8.293.293.293v-4.586h-2v4.586l.293-.293a1 1 0 0 1 1.414 0z"/><path d="m24 24h1v-4h-1a1 1 0 0 0 -1 1v2a1 1 0 0 0 1 1z"/><path d="m25.68 17.05 3-1a1.021 1.021 0 0 1 1.26.6l1.35-1.36a1 1 0 0 1 1.09-.21.987.987 0 0 1 .62.92v1.13l1.45-.96a.989.989 0 0 1 .87-.12l3 1a1.014 1.014 0 0 1 .68.95v-5a3.009 3.009 0 0 0 -3-3h-8a3.009 3.009 0 0 0 -3 3v5a1.014 1.014 0 0 1 .68-.95z"/><path d="m39 24h1a1 1 0 0 0 1-1v-2a1 1 0 0 0 -1-1h-1z"/><path d="m27 18.72v5.28a4.906 4.906 0 0 0 .28 1.66 5.006 5.006 0 0 0 9.44 0 4.906 4.906 0 0 0 .28-1.66v-5.28l-1.85-.62-2.6 1.73a.963.963 0 0 1 -1.02.05.984.984 0 0 1 -.53-.88v-.59l-1.29 1.3a1 1 0 0 1 -1.09.21.987.987 0 0 1 -.62-.92v-.61zm4 5.28a1 1 0 0 0 2 0h2a3 3 0 0 1 -6 0z"/><path d="m53 18a7 7 0 1 0 -7-7 7.008 7.008 0 0 0 7 7zm-3-4h4v-2h-2a2 2 0 0 1 -2-2v-2a2 2 0 0 1 2-2v-1h2v1h2v2h-4v2h2a2 2 0 0 1 2 2v2a2 2 0 0 1 -2 2v1h-2v-1h-2z"/><path d="m30.81 30.89-.7 2.8 1.89 1.9 1.89-1.9-.7-2.8a6.492 6.492 0 0 1 -2.38 0z"/><path d="m10 22v10a1 1 0 0 0 1 1h10v-2h-9v-9z"/><path d="m54 32v-10h-2v9h-9v2h10a1 1 0 0 0 1-1z"/></svg>